<?xml version="1.0" encoding="UTF-8" standalone="no"?>
<!-- Created with Inkscape (http://www.inkscape.org/) -->

<svg
   xmlns:dc="http://purl.org/dc/elements/1.1/"
   xmlns:cc="http://creativecommons.org/ns#"
   xmlns:rdf="http://www.w3.org/1999/02/22-rdf-syntax-ns#"
   xmlns:svg="http://www.w3.org/2000/svg"
   xmlns="http://www.w3.org/2000/svg"
   xmlns:sodipodi="http://sodipodi.sourceforge.net/DTD/sodipodi-0.dtd"
   xmlns:inkscape="http://www.inkscape.org/namespaces/inkscape"
   width="260"
   height="260"
   viewBox="0 0 68.791665 68.791669"
   version="1.1"
   id="svg3886"
   inkscape:version="0.92.3 (2405546, 2018-03-11)"
   sodipodi:docname="favicon.svg">
  <defs
     id="defs3880" />
  <sodipodi:namedview
     id="base"
     pagecolor="#ffffff"
     bordercolor="#666666"
     borderopacity="1.0"
     inkscape:pageopacity="0.0"
     inkscape:pageshadow="2"
     inkscape:zoom="2.4395184"
     inkscape:cx="56.822907"
     inkscape:cy="145.76401"
     inkscape:document-units="mm"
     inkscape:current-layer="text3890"
     showgrid="false"
     units="px"
     inkscape:window-width="1920"
     inkscape:window-height="1145"
     inkscape:window-x="0"
     inkscape:window-y="27"
     inkscape:window-maximized="1" />
  <metadata
     id="metadata3883">
    <rdf:RDF>
      <cc:Work
         rdf:about="">
        <dc:format>image/svg+xml</dc:format>
        <dc:type
           rdf:resource="http://purl.org/dc/dcmitype/StillImage" />
        <dc:title></dc:title>
      </cc:Work>
    </rdf:RDF>
  </metadata>
  <g
     inkscape:label="Calque 1"
     inkscape:groupmode="layer"
     id="layer1"
     transform="translate(0,-228.20832)">
    <g
       aria-label="g"
       style="font-style:normal;font-weight:normal;font-size:10.58333302px;line-height:1.25;font-family:sans-serif;letter-spacing:0px;word-spacing:0px;fill:#000000;fill-opacity:1;stroke:none;stroke-width:0.26458332"
       id="text3890">
      <g
         id="g3926"
         transform="translate(0.05426395,-1.6666666e-6)">
        <path
           inkscape:connector-curvature="0"
           id="path3892"
           style="font-style:normal;font-variant:normal;font-weight:normal;font-stretch:normal;font-size:97.0138855px;font-family:'Ubuntu Mono';-inkscape-font-specification:'Ubuntu Mono';stroke-width:0.26458332"
           d="m 60.239874,273.32419 q -1.358195,0.77611 -4.171597,1.64924 -2.813403,0.87312 -6.499931,0.87312 -3.977569,0 -7.470069,-1.26118 -3.395486,-1.35819 -6.014861,-3.97757 -2.522361,-2.71638 -4.074583,-6.79097 -1.455208,-4.17159 -1.455208,-9.7984 0,-4.94771 1.358194,-9.02229 1.455208,-4.1716 4.074583,-7.17903 2.716389,-3.00743 6.596945,-4.65667 3.880555,-1.74625 8.828263,-1.74625 5.820833,0 9.895416,0.87313 4.171598,0.77611 6.985,1.55222 v 40.16375 q 0,10.4775 -5.335763,15.13417 -5.23875,4.65666 -15.910278,4.65666 -4.365625,0 -7.955138,-0.67909 -3.4925,-0.6791 -6.208889,-1.64924 l 1.455208,-7.08201 q 2.522361,1.06715 5.72382,1.74625 3.298472,0.67909 7.179027,0.67909 6.985,0 9.99243,-2.8134 3.007431,-2.8134 3.007431,-9.1193 z m 0,-33.76083 q -1.164167,-0.38805 -3.201458,-0.6791 -2.037292,-0.38805 -5.529792,-0.38805 -6.208889,0 -9.507361,4.26861 -3.201458,4.26861 -3.201458,11.35062 0,3.88056 0.873125,6.69396 0.970139,2.71639 2.522361,4.55965 1.649236,1.74625 3.686528,2.61938 2.037291,0.77611 4.365625,0.77611 3.00743,0 5.626805,-0.87312 2.716389,-0.87313 4.365625,-2.0373 z" />
        <path
           inkscape:connector-curvature="0"
           id="path3892-1"
           style="font-style:normal;font-variant:normal;font-weight:normal;font-stretch:normal;font-size:97.0138855px;line-height:1.25;font-family:'Ubuntu Mono';-inkscape-font-specification:'Ubuntu Mono';letter-spacing:0px;word-spacing:0px;fill:#000000;fill-opacity:1;stroke:none;stroke-width:0.26458332"
           d="m 8.4432599,273.32419 q 1.3581954,0.77611 4.1715971,1.64924 2.813403,0.87312 6.499931,0.87312 3.977569,0 7.470069,-1.26118 3.395486,-1.35819 6.014861,-3.97757 2.522361,-2.71638 4.074583,-6.79097 1.455208,-4.17159 1.455208,-9.7984 0,-4.94771 -1.358194,-9.02229 -1.455208,-4.1716 -4.074583,-7.17903 -2.716389,-3.00743 -6.596945,-4.65667 -3.880555,-1.74625 -8.828263,-1.74625 -5.820834,0 -9.8954155,0.87313 -4.1715956,0.77611 -6.98499574,1.55222 v 40.16375 q 0,10.4775 5.33576194,15.13417 5.2387473,4.65666 15.9102743,4.65666 4.365625,0 7.955138,-0.67909 3.4925,-0.6791 6.208889,-1.64924 l -1.455208,-7.08201 q -2.522361,1.06715 -5.72382,1.74625 -3.298472,0.67909 -7.179027,0.67909 -6.985,0 -9.992431,-2.8134 -3.0074301,-2.8134 -3.0074301,-9.1193 z m 0,-33.76083 q 1.1641664,-0.38805 3.2014571,-0.6791 2.037293,-0.38805 5.529793,-0.38805 6.208889,0 9.507361,4.26861 3.201458,4.26861 3.201458,11.35062 0,3.88056 -0.873125,6.69396 -0.970139,2.71639 -2.522361,4.55965 -1.649236,1.74625 -3.686528,2.61938 -2.037291,0.77611 -4.365625,0.77611 -3.00743,0 -5.626805,-0.87312 -2.716388,-0.87313 -4.3656251,-2.0373 z" />
      </g>
    </g>
  </g>
</svg>
